# xmcd
# 
# Track frame offsets:
#     150
#     13814
#     35394
#     49909
#     62029
#     77573
#     86886
#     108502
#     124694
#     139343
#     150979
# 
# Disc length: 2338
# 
# Revision: 1
# Processed by: cddbd v1.5.2PL0 Copyright (c) Steve Scherf et al.
# Submitted via: fre:ac v1.0.17
# 
DISCID=8d09200b
DTITLE=Kylesa - Ultraviolet (2013)
DYEAR=0
DGENRE=Metal
TTITLE0=Exhale
TTITLE1=Unspoken
TTITLE2=Grounded
TTITLE3=We're Taking This
TTITLE4=Long Gone
TTITLE5=What Does It Take
TTITLE6=Steady Breakdown
TTITLE7=Low Tide
TTITLE8=Vulture's Landing
TTITLE9=Quicksand
TTITLE10=Drifting
EXTD=
EXTT0=
EXTT1=
EXTT2=
EXTT3=
EXTT4=
EXTT5=
EXTT6=
EXTT7=
EXTT8=
EXTT9=
EXTT10=
PLAYORDER=
